<svg version="1.1" xmlns="http://www.w3.org/2000/svg" xmlns:xlink="http://www.w3.org/1999/xlink" style="width:40px;height:52px;flex-shrink:0;"
     viewBox="350 230 280 650" xml:space="preserve">
	<g>
		<path style="fill:#FFFFFF;" d="M588.8,761.5c4.3,0,8.6-1.3,12.2-3.7c3.6-2.4,6.4-5.9,8.1-9.9c1.7-4,2.1-8.4,1.2-12.7
			c-0.8-4.3-2.9-8.2-6-11.3c-3.1-3.1-7-5.2-11.3-6c-4.3-0.8-8.7-0.4-12.7,1.3c-4,1.7-7.4,4.5-9.9,8.1c-2.4,3.6-3.7,7.9-3.7,12.2
			c0,2.9,0.6,5.7,1.7,8.4c1.1,2.7,2.7,5.1,4.8,7.1c2,2,4.5,3.7,7.1,4.8C583,760.9,585.9,761.5,588.8,761.5z"/>
		<path style="fill:#FFFFFF;" d="M571.4,807.5c4.3,0,8.6-1.3,12.2-3.7c3.6-2.4,6.4-5.9,8.1-9.9c1.7-4,2.1-8.4,1.2-12.7
			c-0.9-4.3-2.9-8.2-6-11.3c-3.1-3.1-7-5.2-11.3-6c-4.3-0.8-8.7-0.4-12.7,1.3c-4,1.7-7.5,4.5-9.9,8.1c-2.4,3.6-3.7,7.9-3.7,12.2
			c0,2.9,0.6,5.7,1.7,8.4c1.1,2.7,2.7,5.1,4.8,7.1c2,2,4.5,3.7,7.1,4.8C565.6,806.9,568.5,807.5,571.4,807.5z"/>
		<path style="fill:#FFFFFF;" d="M392.3,781.2c4.3,0,8.6-1.3,12.2-3.7c3.6-2.4,6.4-5.8,8.1-9.9c1.7-4,2.1-8.4,1.3-12.7
			c-0.8-4.3-2.9-8.2-6-11.3c-3.1-3.1-7-5.2-11.3-6c-4.3-0.9-8.7-0.4-12.7,1.2c-4,1.7-7.5,4.5-9.9,8.1c-2.4,3.6-3.7,7.9-3.7,12.2
			c0,5.8,2.3,11.4,6.4,15.5C380.8,778.9,386.4,781.2,392.3,781.2z"/>
		<path style="fill:#FFFFFF;" d="M534,486.8c-6.9-6.2-14.3-12.4-22.2-18.7c-0.9-0.7-1.8-1.5-2.8-2.2v0.1c-7.9-5.7-15.1-12.4-21.3-19.9L479,462
			c2,4.8,3.6,13.5,0.7,28.6l-0.6,3.3c5.2,7.9,11.8,14.8,19.4,20.4c2.5,1.9,5.5,4.1,8.6,6.8c33.1,26.8,98.5,93.4,85.6,192.2
			c2.3,0.3,4.5,1,6.5,2.2C617.3,679.5,645.7,587.6,534,486.8z"/>
		<path style="fill:#FFFFFF;" d="M428.4,477.4c-7.5-15.6-9.7-34.4-3.9-51.1c-17.3,21.1-19.4,50.7-12,76.5c4,13.5,9.9,26.3,17.5,38.1l0.2,0.4
			c3.1,4.9,6.8,9.4,11,13.4v-58.3C436.2,490.6,431.9,484.2,428.4,477.4z"/>
		<path style="fill:#FFFFFF;" d="M433.5,591.4l-2.2-1.4v0.1c-10.7-6-19.7-14.5-26.3-24.8c-6.9-11.1-9.3-24.5-6.5-37.3
			c-11.2,16.8-10.8,38.7-3.3,57.1c3.9,9.6,9.2,18.6,15.6,26.8l0.2,0.3c4.5,5.7,10,10.5,16.2,14.1c2,1.2,4.3,2.7,6.9,4.3
			c2.5,1.7,4.7,3.2,7.3,5.1v-39.2C438.8,594.7,436.1,593,433.5,591.4z"/>
		<path style="fill:#FFFFFF;" d="M485.7,534.9c-6.9-6.2-14.3-12.5-22.2-18.7c-0.9-0.7-1.8-1.5-2.8-2.2v0.1c-3.9-2.9-7.7-5.9-11.2-9.2v56.9
			l0.8,0.6c2.5,1.9,5.5,4.1,8.6,6.8c32.6,26.4,96.5,91.4,86.2,187.7c-5.6-3.3-11.5-6-17.6-8.2c-1.7-1.8-3.6-3.3-5.7-4.4
			c5.9-34.3-0.2-88.6-70.6-140.7l-1.8-1.3v39.8c23.5,19,53.4,51.9,60,99.5c-5.9,0.7-11.3,3.5-15.2,8c-3.9,4.5-6,10.2-5.9,16.1
			c0,13.3,10.3,24.2,22.9,24.2c12.7,0,22.9-10.8,22.9-24.2c0-2.6-0.4-5.2-1.2-7.7c3.9,1.7,7.7,3.8,11.2,6.2c1.7,1.1,3.1,2.5,4.3,4.1
			c1-1.9,2.2-4,3.3-6.3C570,724.9,595.9,634.2,485.7,534.9z M513.6,784.2c-4.1-0.1-8-1.9-10.9-4.9s-4.4-7-4.3-11.1
			c-0.1-3.6,1.1-7.1,3.3-10c2.2-2.9,5.3-4.9,8.8-5.8c3.2-0.7,6.5-0.3,9.4,1.2c2.7,1.4,5,3.4,6.5,6c1.6,2.6,2.4,5.6,2.3,8.6
			c0.1,4.1-1.4,8.1-4.3,11.1c-2.8,3-6.7,4.7-10.8,4.9L513.6,784.2z"/>
		<path style="fill:#FFFFFF;" d="M436,672c-4.1-2.3-8.1-4.4-12.3-6.2c-14.8-8.4-28.1-19.3-37.5-34c-9.6-14.9-13-33-9.4-50.3
			c-13,20-13.9,45.4-6.9,68.1c0.9,3.1,2.1,6.2,3.3,9.3c1.9,4.4,4.1,8.7,6.7,12.7c11.1,17.8,26.7,32.3,45.4,42
			c1.3,0.7,2.5,1.4,3.7,2.2c4.3,2.6,8.4,5.6,12.1,9v-49.5C439.5,674,437.7,673,436,672z"/>
		<path style="fill:#FFFFFF;" d="M433,793.9c-6.9,7.9-15.7,14.2-25.4,18.1c-40.3,16.5-56.2-1.3-56.2-1.3c11.1,23.8,48.4,27.8,48.4,27.8
			c11.1,1.1,22.3,0.4,33.1-2.2c2.8-0.7,5.6-1.5,8.3-2.5v-51.4C438.8,786.5,436.1,790.4,433,793.9z"/>
		<path style="fill:#FFFFFF;" d="M450.3,681.3l-0.9-0.7v149.5c40.6-21.5,40.4-74.6,40.4-74.6C489,721,471.9,697.3,450.3,681.3z"/>
		<path style="fill:#FFFFFF;" d="M441.2,279.4c1.4-0.3,2.6-1,3.5-2.1c0.9-1.1,1.4-2.5,1.4-3.9s-0.5-2.8-1.4-3.9c-0.9-1.1-2.2-1.8-3.5-2.1
			l-4.1-26.4l-4.1,26.4c-1.4,0.3-2.7,1-3.6,2.1c-0.9,1.1-1.4,2.5-1.4,3.9s0.5,2.8,1.4,3.9c0.9,1.1,2.2,1.8,3.6,2.1v514.5
			c3.1-3.5,5.9-7.4,8.2-11.5v-379V292.9V279.4z"/>
		<path style="fill:#16A34A;" d="M454.1,426.7c-6.5,14.7,5.3,20.7,5.3,20.7c-8.6,8.2-7.8,30.4-1.3,31.9c6.6,1.5,15,10.1,15,10.1
			c4.2-21.6-1.8-27.2-1.8-27.2l15.1-27.8c0.8-1.4,1.3-3,1.4-4.6c0-1.6-0.3-3.3-1.1-4.7l-3.9-7.7l10.8-5.9
			c25-10.2,15.1-20.7,15.1-20.7s-28.6-36.7-40.7-68.9c-8.6-22.8-20.6-27.8-26.8-28.8v110.5l2.7-1.2
			C449.2,388.7,460.6,412.1,454.1,426.7z"/>
	</g>
</svg>